<svg id="Layer_1" data-name="Layer 1" xmlns="http://www.w3.org/2000/svg" viewBox="0 0 101 30"><defs><style>.cls-1{fill:#444;}.cls-2,.cls-3{isolation:isolate;}.cls-3{font-size:12.87px;fill:#595959;font-family:Roboto-Regular, Roboto;}.cls-4{letter-spacing:-0.01em;}.cls-5{letter-spacing:-0.01em;}.cls-6{letter-spacing:-0.01em;}</style></defs><g id="Grupo_954" data-name="Grupo 954"><g id="Grupo_617" data-name="Grupo 617"><g id="Grupo_597" data-name="Grupo 597"><g id="Grupo_596" data-name="Grupo 596"><path id="Trazado_112" data-name="Trazado 112" class="cls-1" d="M1.84,18V23.3h9.25v1.23H1.84v5.69H-.06V16.8H12.21V18Z"/><path id="Trazado_113" data-name="Trazado 113" class="cls-1" d="M16.12,16.8H18V29H28v1.23H16.13Z"/><path id="Trazado_114" data-name="Trazado 114" class="cls-1" d="M29.23,23.51c0-3.91,4-6.83,9.41-6.83S48,19.58,48,23.51s-4,6.82-9.37,6.82S29.23,27.42,29.23,23.51Zm16.89,0c0-3.2-3.19-5.56-7.49-5.56s-7.53,2.36-7.53,5.56,3.21,5.56,7.53,5.56S46.12,26.71,46.12,23.51Z"/><path id="Trazado_115" data-name="Trazado 115" class="cls-1" d="M64.46,30.22l-4.09-4.31c-.46,0-.92.06-1.43.06h-4.8v4.25H52.25V16.8h6.69c4.55,0,7.31,1.73,7.31,4.61,0,2.1-1.48,3.58-4.09,4.21l4.37,4.61Zm-.1-8.81c0-2.15-1.89-3.38-5.47-3.38H54.14v6.73h4.75c3.58,0,5.47-1.25,5.47-3.35Z"/><path id="Trazado_116" data-name="Trazado 116" class="cls-1" d="M83.37,29v1.23H70.72V16.81H83V18H72.61v4.77h9.25V24H72.61v5Z"/><path id="Trazado_117" data-name="Trazado 117" class="cls-1" d="M98.8,30.22,93,24.32l-5.75,5.9H85.11l6.79-6.9L85.54,16.8h2.17l5.39,5.49,5.37-5.49h2l-6.33,6.48L101,30.22Z"/></g></g></g><g id="Powered_by" data-name="Powered by" class="cls-2"><text class="cls-3" transform="translate(-0.61 9.78)"><tspan class="cls-4">P</tspan><tspan x="8.04" y="0">owe</tspan><tspan class="cls-5" x="31.86" y="0">r</tspan><tspan x="36.09" y="0">ed </tspan><tspan class="cls-6" x="53.35" y="0">b</tspan><tspan x="60.5" y="0">y</tspan></text></g></g></svg>